<mxfile host="app.diagrams.net" agent="Mozilla/5.0 (Windows NT 10.0; Win64; x64) AppleWebKit/537.36 (KHTML, like Gecko) Chrome/139.0.0.0 Safari/537.36" version="28.1.0">
  <diagram name="Cross-Partition Inference Direct Connect" id="cross-partition-inference-direct-connect">
    <mxGraphModel dx="1358" dy="913" grid="1" gridSize="10" guides="1" tooltips="1" connect="1" arrows="1" fold="1" page="1" pageScale="1" pageWidth="1400" pageHeight="1000" math="0" shadow="0">
      <root>
        <mxCell id="0" />
        <mxCell id="1" parent="0" />
        <mxCell id="title" value="AWS Cross-Partition Inference - AWS Direct Connect" style="text;html=1;strokeColor=none;fillColor=none;align=center;verticalAlign=middle;whiteSpace=wrap;rounded=0;fontSize=24;fontStyle=1;" parent="1" vertex="1">
          <mxGeometry x="330" y="30" width="670" height="40" as="geometry" />
        </mxCell>
        <mxCell id="govcloud-cloud" value="AWS GovCloud Partition" style="points=[[0,0],[0.25,0],[0.5,0],[0.75,0],[1,0],[1,0.25],[1,0.5],[1,0.75],[1,1],[0.75,1],[0.5,1],[0.25,1],[0,1],[0,0.75],[0,0.5],[0,0.25]];outlineConnect=0;gradientColor=none;html=1;whiteSpace=wrap;fontSize=12;fontStyle=0;container=1;pointerEvents=0;collapsible=0;recursiveResize=0;shape=mxgraph.aws4.group;grIcon=mxgraph.aws4.group_aws_cloud_alt;strokeColor=#FF9900;fillColor=none;verticalAlign=top;align=left;spacingLeft=30;fontColor=#FF9900;dashed=0;" parent="1" vertex="1">
          <mxGeometry x="180" y="70" width="540" height="640" as="geometry" />
        </mxCell>
        <mxCell id="govcloud-region" value="US Gov West 1 (Oregon)" style="points=[[0,0],[0.25,0],[0.5,0],[0.75,0],[1,0],[1,0.25],[1,0.5],[1,0.75],[1,1],[0.75,1],[0.5,1],[0.25,1],[0,1],[0,0.75],[0,0.5],[0,0.25]];outlineConnect=0;gradientColor=none;html=1;whiteSpace=wrap;fontSize=12;fontStyle=0;container=1;pointerEvents=0;collapsible=0;recursiveResize=0;shape=mxgraph.aws4.group;grIcon=mxgraph.aws4.group_region;strokeColor=#FF9900;fillColor=none;verticalAlign=top;align=left;spacingLeft=30;fontColor=#FF9900;dashed=0;" parent="govcloud-cloud" vertex="1">
          <mxGeometry x="50" y="110" width="470" height="510" as="geometry" />
        </mxCell>
        <mxCell id="apigateway" value="" style="sketch=0;points=[[0,0,0],[0.25,0,0],[0.5,0,0],[0.75,0,0],[1,0,0],[0,1,0],[0.25,1,0],[0.5,1,0],[0.75,1,0],[1,1,0],[0,0.25,0],[0,0.5,0],[0,0.75,0],[1,0.25,0],[1,0.5,0],[1,0.75,0]];outlineConnect=0;fontColor=#232F3E;gradientColor=#FF4F8B;gradientDirection=north;fillColor=#BC1356;strokeColor=#ffffff;dashed=0;verticalLabelPosition=bottom;verticalAlign=top;align=center;html=1;fontSize=12;fontStyle=0;aspect=fixed;shape=mxgraph.aws4.resourceIcon;resIcon=mxgraph.aws4.api_gateway;" parent="govcloud-region" vertex="1">
          <mxGeometry x="113" y="30" width="58" height="58" as="geometry" />
        </mxCell>
        <mxCell id="apigateway-label" value="API Gateway&#xa;Cross-Partition API" style="text;html=1;strokeColor=none;fillColor=none;align=center;verticalAlign=middle;whiteSpace=wrap;rounded=0;fontSize=10;" parent="govcloud-region" vertex="1">
          <mxGeometry x="73" y="94" width="140" height="30" as="geometry" />
        </mxCell>
        <mxCell id="vpc" value="VPC (10.0.0.0/16)" style="points=[[0,0],[0.25,0],[0.5,0],[0.75,0],[1,0],[1,0.25],[1,0.5],[1,0.75],[1,1],[0.75,1],[0.5,1],[0.25,1],[0,1],[0,0.75],[0,0.5],[0,0.25]];outlineConnect=0;gradientColor=none;html=1;whiteSpace=wrap;fontSize=12;fontStyle=0;container=1;pointerEvents=0;collapsible=0;recursiveResize=0;shape=mxgraph.aws4.group;grIcon=mxgraph.aws4.group_vpc;strokeColor=#248814;fillColor=none;verticalAlign=top;align=left;spacingLeft=30;fontColor=#248814;dashed=0;" parent="govcloud-region" vertex="1">
          <mxGeometry x="33" y="124" width="330" height="366" as="geometry" />
        </mxCell>
        <mxCell id="private-subnet" value="Private Subnet (10.0.1.0/24)" style="points=[[0,0],[0.25,0],[0.5,0],[0.75,0],[1,0],[1,0.25],[1,0.5],[1,0.75],[1,1],[0.75,1],[0.5,1],[0.25,1],[0,1],[0,0.75],[0,0.5],[0,0.25]];outlineConnect=0;gradientColor=none;html=1;whiteSpace=wrap;fontSize=12;fontStyle=0;container=1;pointerEvents=0;collapsible=0;recursiveResize=0;shape=mxgraph.aws4.group;grIcon=mxgraph.aws4.group_security_group;strokeColor=#147EBA;fillColor=#E6F2FF;verticalAlign=top;align=left;spacingLeft=30;fontColor=#147EBA;dashed=0;" parent="vpc" vertex="1">
          <mxGeometry x="40" y="40" width="250" height="180" as="geometry" />
        </mxCell>
        <mxCell id="secrets-vpc-endpoint" value="" style="sketch=0;outlineConnect=0;fontColor=#232F3E;gradientColor=none;gradientDirection=north;fillColor=#8C4FFF;strokeColor=none;dashed=0;verticalLabelPosition=bottom;verticalAlign=top;align=center;html=1;fontSize=12;fontStyle=0;aspect=fixed;shape=mxgraph.aws4.endpoints;resIcon=mxgraph.aws4.vpc_endpoint;pointerEvents=1;" parent="private-subnet" vertex="1">
          <mxGeometry x="177" y="94" width="48" height="48" as="geometry" />
        </mxCell>
        <mxCell id="secrets-vpc-endpoint-label" value="Secrets VPC&#xa;Endpoint" style="text;html=1;strokeColor=none;fillColor=none;align=center;verticalAlign=middle;whiteSpace=wrap;rounded=0;fontSize=9;" parent="private-subnet" vertex="1">
          <mxGeometry x="162" y="144" width="78" height="25" as="geometry" />
        </mxCell>
        <mxCell id="cloudwatch-vpc-endpoint" value="" style="sketch=0;outlineConnect=0;fontColor=#232F3E;gradientColor=none;gradientDirection=north;fillColor=#8C4FFF;strokeColor=none;dashed=0;verticalLabelPosition=bottom;verticalAlign=top;align=center;html=1;fontSize=12;fontStyle=0;aspect=fixed;shape=mxgraph.aws4.endpoints;resIcon=mxgraph.aws4.vpc_endpoint;pointerEvents=1;" parent="private-subnet" vertex="1">
          <mxGeometry x="177" y="21" width="48" height="48" as="geometry" />
        </mxCell>
        <mxCell id="cloudwatch-vpc-endpoint-label" value="CloudWatch VPC&#xa;Endpoint" style="text;html=1;strokeColor=none;fillColor=none;align=center;verticalAlign=middle;whiteSpace=wrap;rounded=0;fontSize=9;" parent="private-subnet" vertex="1">
          <mxGeometry x="162" y="69" width="78" height="25" as="geometry" />
        </mxCell>
        <mxCell id="lambda" value="" style="sketch=0;points=[[0,0,0],[0.25,0,0],[0.5,0,0],[0.75,0,0],[1,0,0],[0,1,0],[0.25,1,0],[0.5,1,0],[0.75,1,0],[1,1,0],[0,0.25,0],[0,0.5,0],[0,0.75,0],[1,0.25,0],[1,0.5,0],[1,0.75,0]];outlineConnect=0;fontColor=#232F3E;gradientColor=#F78E04;gradientDirection=north;fillColor=#D05C17;strokeColor=#ffffff;dashed=0;verticalLabelPosition=bottom;verticalAlign=top;align=center;html=1;fontSize=12;fontStyle=0;aspect=fixed;shape=mxgraph.aws4.resourceIcon;resIcon=mxgraph.aws4.lambda;" parent="private-subnet" vertex="1">
          <mxGeometry x="37" y="61" width="58" height="58" as="geometry" />
        </mxCell>
        <mxCell id="lambda-label" value="Lambda (VPC)" style="text;html=1;strokeColor=none;fillColor=none;align=center;verticalAlign=middle;whiteSpace=wrap;rounded=0;fontSize=10;" parent="private-subnet" vertex="1">
          <mxGeometry x="22" y="124" width="88" height="20" as="geometry" />
        </mxCell>
        <mxCell id="dx-gateway" value="" style="sketch=0;points=[[0,0,0],[0.25,0,0],[0.5,0,0],[0.75,0,0],[1,0,0],[0,1,0],[0.25,1,0],[0.5,1,0],[0.75,1,0],[1,1,0],[0,0.25,0],[0,0.5,0],[0,0.75,0],[1,0.25,0],[1,0.5,0],[1,0.75,0]];outlineConnect=0;fontColor=#232F3E;gradientColor=#4AB29A;gradientDirection=north;fillColor=#116D5B;strokeColor=#ffffff;dashed=0;verticalLabelPosition=bottom;verticalAlign=top;align=center;html=1;fontSize=12;fontStyle=0;aspect=fixed;shape=mxgraph.aws4.resourceIcon;resIcon=mxgraph.aws4.direct_connect;" parent="vpc" vertex="1">
          <mxGeometry x="40" y="250" width="58" height="58" as="geometry" />
        </mxCell>
        <mxCell id="dx-gateway-label" value="Direct Connect&#xa;Gateway" style="text;html=1;strokeColor=none;fillColor=none;align=center;verticalAlign=middle;whiteSpace=wrap;rounded=0;fontSize=10;" parent="vpc" vertex="1">
          <mxGeometry x="25" y="325" width="88" height="25" as="geometry" />
        </mxCell>
        <mxCell id="vif" value="" style="sketch=0;outlineConnect=0;fontColor=#232F3E;gradientColor=none;gradientDirection=north;fillColor=#8C4FFF;strokeColor=none;dashed=0;verticalLabelPosition=bottom;verticalAlign=top;align=center;html=1;fontSize=12;fontStyle=0;aspect=fixed;shape=mxgraph.aws4.endpoints;resIcon=mxgraph.aws4.virtual_private_gateway;pointerEvents=1;" parent="vpc" vertex="1">
          <mxGeometry x="180" y="250" width="58" height="58" as="geometry" />
        </mxCell>
        <mxCell id="vif-label" value="Virtual Interface&#xa;(Cross-Partition)" style="text;html=1;strokeColor=none;fillColor=none;align=center;verticalAlign=middle;whiteSpace=wrap;rounded=0;fontSize=10;" parent="vpc" vertex="1">
          <mxGeometry x="155" y="325" width="108" height="25" as="geometry" />
        </mxCell>
        <mxCell id="conn-dx-vif" value="" style="endArrow=classic;html=1;rounded=0;exitX=1;exitY=0.5;exitDx=0;exitDy=0;entryX=0;entryY=0.5;entryDx=0;entryDy=0;exitPerimeter=0;entryPerimeter=0;strokeColor=#FF6600;strokeWidth=1;dashed=1;" parent="vpc" source="dx-gateway" target="vif" edge="1">
          <mxGeometry width="50" height="50" relative="1" as="geometry">
            <mxPoint x="140" y="82" as="sourcePoint" />
            <mxPoint x="190" y="32" as="targetPoint" />
          </mxGeometry>
        </mxCell>
        <mxCell id="conn-lambda-dx" value="" style="endArrow=classic;html=1;rounded=0;exitX=0.5;exitY=0;exitDx=0;exitDy=0;strokeColor=#FF6600;strokeWidth=1;entryX=0.75;entryY=0;entryDx=0;entryDy=0;entryPerimeter=0;dashed=1;" parent="vpc" source="lambda-label" target="dx-gateway" edge="1">
          <mxGeometry width="50" height="50" relative="1" as="geometry">
            <mxPoint x="138" y="238" as="sourcePoint" />
            <mxPoint x="220" y="238" as="targetPoint" />
          </mxGeometry>
        </mxCell>
        <mxCell id="cloudwatch" value="" style="sketch=0;points=[[0,0,0],[0.25,0,0],[0.5,0,0],[0.75,0,0],[1,0,0],[0,1,0],[0.25,1,0],[0.5,1,0],[0.75,1,0],[1,1,0],[0,0.25,0],[0,0.5,0],[0,0.75,0],[1,0.25,0],[1,0.5,0],[1,0.75,0]];outlineConnect=0;fontColor=#232F3E;gradientColor=#F34482;gradientDirection=north;fillColor=#BC1356;strokeColor=#ffffff;dashed=0;verticalLabelPosition=bottom;verticalAlign=top;align=center;html=1;fontSize=12;fontStyle=0;aspect=fixed;shape=mxgraph.aws4.resourceIcon;resIcon=mxgraph.aws4.cloudwatch;" parent="govcloud-region" vertex="1">
          <mxGeometry x="397" y="185" width="58" height="58" as="geometry" />
        </mxCell>
        <mxCell id="cloudwatch-label" value="CloudWatch" style="text;html=1;strokeColor=none;fillColor=none;align=center;verticalAlign=middle;whiteSpace=wrap;rounded=0;fontSize=10;" parent="govcloud-region" vertex="1">
          <mxGeometry x="382" y="282" width="88" height="20" as="geometry" />
        </mxCell>
        <mxCell id="secrets" value="" style="sketch=0;points=[[0,0,0],[0.25,0,0],[0.5,0,0],[0.75,0,0],[1,0,0],[0,1,0],[0.25,1,0],[0.5,1,0],[0.75,1,0],[1,1,0],[0,0.25,0],[0,0.5,0],[0,0.75,0],[1,0.25,0],[1,0.5,0],[1,0.75,0]];outlineConnect=0;fontColor=#232F3E;gradientColor=#F34482;gradientDirection=north;fillColor=#BC1356;strokeColor=#ffffff;dashed=0;verticalLabelPosition=bottom;verticalAlign=top;align=center;html=1;fontSize=12;fontStyle=0;aspect=fixed;shape=mxgraph.aws4.resourceIcon;resIcon=mxgraph.aws4.secrets_manager;" parent="govcloud-region" vertex="1">
          <mxGeometry x="395" y="310" width="58" height="58" as="geometry" />
        </mxCell>
        <mxCell id="secrets-label" value="Secrets Manager" style="text;html=1;strokeColor=none;fillColor=none;align=center;verticalAlign=middle;whiteSpace=wrap;rounded=0;fontSize=10;" parent="govcloud-region" vertex="1">
          <mxGeometry x="380" y="379" width="88" height="20" as="geometry" />
        </mxCell>
        <mxCell id="conn-lambda-secrets" value="" style="endArrow=classic;html=1;rounded=0;exitX=1;exitY=0.5;exitDx=0;exitDy=0;exitPerimeter=0;" parent="govcloud-region" source="lambda" target="secrets-vpc-endpoint" edge="1">
          <mxGeometry width="50" height="50" relative="1" as="geometry">
            <mxPoint x="170" y="140" as="sourcePoint" />
            <mxPoint x="220" y="90" as="targetPoint" />
          </mxGeometry>
        </mxCell>
        <mxCell id="conn-lambda-cloudwatch" value="" style="endArrow=classic;html=1;rounded=0;exitX=1;exitY=0.5;exitDx=0;exitDy=0;exitPerimeter=0;" parent="govcloud-region" source="lambda" target="cloudwatch-vpc-endpoint" edge="1">
          <mxGeometry width="50" height="50" relative="1" as="geometry">
            <mxPoint x="170" y="140" as="sourcePoint" />
            <mxPoint x="217" y="233" as="targetPoint" />
          </mxGeometry>
        </mxCell>
        <mxCell id="conn-secrets-endpoint" value="" style="endArrow=classic;html=1;rounded=0;entryX=0;entryY=0.5;entryDx=0;entryDy=0;entryPerimeter=0;" parent="govcloud-region" source="secrets-vpc-endpoint" target="secrets" edge="1">
          <mxGeometry width="50" height="50" relative="1" as="geometry">
            <mxPoint x="220" y="361" as="sourcePoint" />
            <mxPoint x="324" y="280" as="targetPoint" />
          </mxGeometry>
        </mxCell>
        <mxCell id="conn-cloudwatch-endpoint" value="" style="endArrow=classic;html=1;rounded=0;entryX=0;entryY=0.5;entryDx=0;entryDy=0;entryPerimeter=0;" parent="govcloud-region" source="cloudwatch-vpc-endpoint" target="cloudwatch" edge="1">
          <mxGeometry width="50" height="50" relative="1" as="geometry">
            <mxPoint x="250" y="351" as="sourcePoint" />
            <mxPoint x="354" y="270" as="targetPoint" />
          </mxGeometry>
        </mxCell>
        <mxCell id="iam" value="" style="sketch=0;points=[[0,0,0],[0.25,0,0],[0.5,0,0],[0.75,0,0],[1,0,0],[0,1,0],[0.25,1,0],[0.5,1,0],[0.75,1,0],[1,1,0],[0,0.25,0],[0,0.5,0],[0,0.75,0],[1,0.25,0],[1,0.5,0],[1,0.75,0]];outlineConnect=0;fontColor=#232F3E;fillColor=#DD344C;strokeColor=#ffffff;dashed=0;verticalLabelPosition=bottom;verticalAlign=top;align=center;html=1;fontSize=12;fontStyle=0;aspect=fixed;shape=mxgraph.aws4.resourceIcon;resIcon=mxgraph.aws4.identity_and_access_management;" parent="govcloud-cloud" vertex="1">
          <mxGeometry x="435" y="20" width="58" height="58" as="geometry" />
        </mxCell>
        <mxCell id="iam-label" value="IAM" style="text;html=1;strokeColor=none;fillColor=none;align=center;verticalAlign=middle;whiteSpace=wrap;rounded=0;fontSize=10;" parent="govcloud-cloud" vertex="1">
          <mxGeometry x="420" y="90" width="88" height="15" as="geometry" />
        </mxCell>
        <mxCell id="commercial-cloud" value="AWS Commercial Partition" style="points=[[0,0],[0.25,0],[0.5,0],[0.75,0],[1,0],[1,0.25],[1,0.5],[1,0.75],[1,1],[0.75,1],[0.5,1],[0.25,1],[0,1],[0,0.75],[0,0.5],[0,0.25]];outlineConnect=0;gradientColor=none;html=1;whiteSpace=wrap;fontSize=12;fontStyle=0;container=1;pointerEvents=0;collapsible=0;recursiveResize=0;shape=mxgraph.aws4.group;grIcon=mxgraph.aws4.group_aws_cloud_alt;strokeColor=#147EBA;fillColor=none;verticalAlign=top;align=left;spacingLeft=30;fontColor=#147EBA;dashed=0;" parent="1" vertex="1">
          <mxGeometry x="920" y="80" width="420" height="490" as="geometry" />
        </mxCell>
        <mxCell id="commercial-region" value="US East 1 (N. Virginia)" style="points=[[0,0],[0.25,0],[0.5,0],[0.75,0],[1,0],[1,0.25],[1,0.5],[1,0.75],[1,1],[0.75,1],[0.5,1],[0.25,1],[0,1],[0,0.75],[0,0.5],[0,0.25]];outlineConnect=0;gradientColor=none;html=1;whiteSpace=wrap;fontSize=12;fontStyle=0;container=1;pointerEvents=0;collapsible=0;recursiveResize=0;shape=mxgraph.aws4.group;grIcon=mxgraph.aws4.group_region;strokeColor=#147EBA;fillColor=none;verticalAlign=top;align=left;spacingLeft=30;fontColor=#147EBA;dashed=0;" parent="commercial-cloud" vertex="1">
          <mxGeometry x="30" y="107" width="370" height="280" as="geometry" />
        </mxCell>
        <mxCell id="commercial-vpc" value="Commercial VPC (172.16.0.0/16)" style="points=[[0,0],[0.25,0],[0.5,0],[0.75,0],[1,0],[1,0.25],[1,0.5],[1,0.75],[1,1],[0.75,1],[0.5,1],[0.25,1],[0,1],[0,0.75],[0,0.5],[0,0.25]];outlineConnect=0;gradientColor=none;html=1;whiteSpace=wrap;fontSize=12;fontStyle=0;container=1;pointerEvents=0;collapsible=0;recursiveResize=0;shape=mxgraph.aws4.group;grIcon=mxgraph.aws4.group_vpc;strokeColor=#248814;fillColor=none;verticalAlign=top;align=left;spacingLeft=30;fontColor=#248814;dashed=0;" parent="commercial-region" vertex="1">
          <mxGeometry x="40" y="40" width="250" height="200" as="geometry" />
        </mxCell>
        <mxCell id="commercial-private-subnet" value="Private Subnet (172.16.1.0/24)" style="points=[[0,0],[0.25,0],[0.5,0],[0.75,0],[1,0],[1,0.25],[1,0.5],[1,0.75],[1,1],[0.75,1],[0.5,1],[0.25,1],[0,1],[0,0.75],[0,0.5],[0,0.25]];outlineConnect=0;gradientColor=none;html=1;whiteSpace=wrap;fontSize=12;fontStyle=0;container=1;pointerEvents=0;collapsible=0;recursiveResize=0;shape=mxgraph.aws4.group;grIcon=mxgraph.aws4.group_security_group;strokeColor=#147EBA;fillColor=#E6F2FF;verticalAlign=top;align=left;spacingLeft=30;fontColor=#147EBA;dashed=0;" parent="commercial-vpc" vertex="1">
          <mxGeometry x="20" y="40" width="210" height="140" as="geometry" />
        </mxCell>
        <mxCell id="commercial-dx-gateway" value="" style="sketch=0;points=[[0,0,0],[0.25,0,0],[0.5,0,0],[0.75,0,0],[1,0,0],[0,1,0],[0.25,1,0],[0.5,1,0],[0.75,1,0],[1,1,0],[0,0.25,0],[0,0.5,0],[0,0.75,0],[1,0.25,0],[1,0.5,0],[1,0.75,0]];outlineConnect=0;fontColor=#232F3E;gradientColor=#4AB29A;gradientDirection=north;fillColor=#116D5B;strokeColor=#ffffff;dashed=0;verticalLabelPosition=bottom;verticalAlign=top;align=center;html=1;fontSize=12;fontStyle=0;aspect=fixed;shape=mxgraph.aws4.resourceIcon;resIcon=mxgraph.aws4.direct_connect;" parent="commercial-private-subnet" vertex="1">
          <mxGeometry x="20" y="30" width="48" height="48" as="geometry" />
        </mxCell>
        <mxCell id="commercial-dx-gateway-label" value="Direct Connect&#xa;Gateway" style="text;html=1;strokeColor=none;fillColor=none;align=center;verticalAlign=middle;whiteSpace=wrap;rounded=0;fontSize=9;" parent="commercial-private-subnet" vertex="1">
          <mxGeometry x="5" y="85" width="78" height="25" as="geometry" />
        </mxCell>
        <mxCell id="vpc-endpoint" value="" style="sketch=0;outlineConnect=0;fontColor=#232F3E;gradientColor=none;gradientDirection=north;fillColor=#8C4FFF;strokeColor=none;dashed=0;verticalLabelPosition=bottom;verticalAlign=top;align=center;html=1;fontSize=12;fontStyle=0;aspect=fixed;shape=mxgraph.aws4.endpoints;resIcon=mxgraph.aws4.vpc_endpoint;pointerEvents=1;" parent="commercial-private-subnet" vertex="1">
          <mxGeometry x="140" y="30" width="48" height="48" as="geometry" />
        </mxCell>
        <mxCell id="vpc-endpoint-label" value="VPC Endpoint&#xa;(Bedrock)" style="text;html=1;strokeColor=none;fillColor=none;align=center;verticalAlign=middle;whiteSpace=wrap;rounded=0;fontSize=9;" parent="commercial-private-subnet" vertex="1">
          <mxGeometry x="125" y="85" width="78" height="25" as="geometry" />
        </mxCell>
        <mxCell id="bedrock" value="" style="sketch=0;points=[[0,0,0],[0.25,0,0],[0.5,0,0],[0.75,0,0],[1,0,0],[0,1,0],[0.25,1,0],[0.5,1,0],[0.75,1,0],[1,1,0],[0,0.25,0],[0,0.5,0],[0,0.75,0],[1,0.25,0],[1,0.5,0],[1,0.75,0]];outlineConnect=0;fontColor=#232F3E;gradientColor=#4AB29A;gradientDirection=north;fillColor=#116D5B;strokeColor=#ffffff;dashed=0;verticalLabelPosition=bottom;verticalAlign=top;align=center;html=1;fontSize=12;fontStyle=0;aspect=fixed;shape=mxgraph.aws4.resourceIcon;resIcon=mxgraph.aws4.bedrock;" parent="commercial-region" vertex="1">
          <mxGeometry x="300" y="105" width="58" height="58" as="geometry" />
        </mxCell>
        <mxCell id="bedrock-label" value="Amazon Bedrock" style="text;html=1;strokeColor=none;fillColor=none;align=center;verticalAlign=middle;whiteSpace=wrap;rounded=0;fontSize=10;" parent="commercial-region" vertex="1">
          <mxGeometry x="290" y="173" width="88" height="20" as="geometry" />
        </mxCell>
        <mxCell id="conn-endpoint-bedrock" value="" style="endArrow=classic;html=1;rounded=0;exitX=1;exitY=0.5;exitDx=0;exitDy=0;entryX=0;entryY=0.5;entryDx=0;entryDy=0;exitPerimeter=0;entryPerimeter=0;strokeColor=#FF6600;" parent="commercial-region" source="vpc-endpoint" target="bedrock" edge="1">
          <mxGeometry width="50" height="50" relative="1" as="geometry">
            <mxPoint x="-480" y="160" as="sourcePoint" />
            <mxPoint x="-430" y="110" as="targetPoint" />
          </mxGeometry>
        </mxCell>
        <mxCell id="commercial-iam" value="" style="sketch=0;points=[[0,0,0],[0.25,0,0],[0.5,0,0],[0.75,0,0],[1,0,0],[0,1,0],[0.25,1,0],[0.5,1,0],[0.75,1,0],[1,1,0],[0,0.25,0],[0,0.5,0],[0,0.75,0],[1,0.25,0],[1,0.5,0],[1,0.75,0]];outlineConnect=0;fontColor=#232F3E;fillColor=#DD344C;strokeColor=#ffffff;dashed=0;verticalLabelPosition=bottom;verticalAlign=top;align=center;html=1;fontSize=12;fontStyle=0;aspect=fixed;shape=mxgraph.aws4.resourceIcon;resIcon=mxgraph.aws4.identity_and_access_management;" parent="commercial-cloud" vertex="1">
          <mxGeometry x="210" y="20" width="58" height="58" as="geometry" />
        </mxCell>
        <mxCell id="commercial-iam-label" value="IAM" style="text;html=1;strokeColor=none;fillColor=none;align=center;verticalAlign=middle;whiteSpace=wrap;rounded=0;fontSize=10;" parent="commercial-cloud" vertex="1">
          <mxGeometry x="195" y="87" width="88" height="20" as="geometry" />
        </mxCell>
        <mxCell id="clients" value="" style="sketch=0;outlineConnect=0;fontColor=#232F3E;gradientColor=none;fillColor=#232F3D;strokeColor=none;dashed=0;verticalLabelPosition=bottom;verticalAlign=top;align=center;html=1;fontSize=12;fontStyle=0;aspect=fixed;pointerEvents=1;shape=mxgraph.aws4.users;" parent="1" vertex="1">
          <mxGeometry x="60" y="210" width="78" height="78" as="geometry" />
        </mxCell>
        <mxCell id="clients-label" value="GovCloud Applications&#xa;(Using Bedrock SDK)" style="text;html=1;strokeColor=none;fillColor=none;align=center;verticalAlign=middle;whiteSpace=wrap;rounded=0;" parent="1" vertex="1">
          <mxGeometry x="30" y="300" width="138" height="30" as="geometry" />
        </mxCell>
        <mxCell id="conn1" value="" style="endArrow=classic;html=1;rounded=0;exitX=1;exitY=0.5;exitDx=0;exitDy=0;entryX=0;entryY=0.5;entryDx=0;entryDy=0;exitPerimeter=0;entryPerimeter=0;" parent="1" source="clients" target="apigateway" edge="1">
          <mxGeometry width="50" height="50" relative="1" as="geometry">
            <mxPoint x="400" y="400" as="sourcePoint" />
            <mxPoint x="450" y="350" as="targetPoint" />
          </mxGeometry>
        </mxCell>
        <mxCell id="conn2" value="" style="endArrow=classic;html=1;rounded=0;exitX=0.5;exitY=1;exitDx=0;exitDy=0;entryX=0.5;entryY=0;entryDx=0;entryDy=0;exitPerimeter=0;entryPerimeter=0;" parent="1" source="apigateway" target="lambda" edge="1">
          <mxGeometry width="50" height="50" relative="1" as="geometry">
            <mxPoint x="400" y="400" as="sourcePoint" />
            <mxPoint x="450" y="350" as="targetPoint" />
          </mxGeometry>
        </mxCell>
        <mxCell id="conn-cross-partition" value="" style="endArrow=classic;html=1;rounded=0;exitX=1;exitY=0.5;exitDx=0;exitDy=0;entryX=0;entryY=0.5;entryDx=0;entryDy=0;exitPerimeter=0;entryPerimeter=0;strokeColor=#FF6600;strokeWidth=1;dashed=1;" parent="1" source="vif" target="commercial-dx-gateway" edge="1">
          <mxGeometry width="50" height="50" relative="1" as="geometry">
            <mxPoint x="400" y="400" as="sourcePoint" />
            <mxPoint x="450" y="350" as="targetPoint" />
          </mxGeometry>
        </mxCell>
        <mxCell id="conn-dx-endpoint" value="" style="endArrow=classic;html=1;rounded=0;exitX=1;exitY=0.5;exitDx=0;exitDy=0;entryX=0;entryY=0.5;entryDx=0;entryDy=0;exitPerimeter=0;entryPerimeter=0;strokeColor=#FF6600;" parent="1" source="commercial-dx-gateway" target="vpc-endpoint" edge="1">
          <mxGeometry width="50" height="50" relative="1" as="geometry">
            <mxPoint x="450" y="410" as="sourcePoint" />
            <mxPoint x="500" y="360" as="targetPoint" />
          </mxGeometry>
        </mxCell>
        <mxCell id="conn-label" value="Dedicated Private Connection&#xa;AWS Direct Connect" style="text;html=1;strokeColor=none;fillColor=none;align=center;verticalAlign=middle;whiteSpace=wrap;rounded=0;fontSize=12;fontColor=#FF6600;fontStyle=1;" parent="1" vertex="1">
          <mxGeometry x="730" y="480" width="200" height="30" as="geometry" />
        </mxCell>
      </root>
    </mxGraphModel>
  </diagram>
</mxfile>
